<svg width="174" height="32" viewBox="0 0 174 32" fill="none" xmlns="http://www.w3.org/2000/svg">
<g opacity="0.5">
<path opacity="0.7" d="M0.808594 2.54492H3.55664C4.38086 2.54492 5.03906 2.77539 5.53125 3.23633C6.02734 3.69336 6.27539 4.30469 6.27539 5.07031C6.27539 5.83203 6.02734 6.44336 5.53125 6.9043C5.03516 7.36133 4.37695 7.58984 3.55664 7.58984H1.27148V11H0.808594V2.54492ZM1.27148 2.9668V7.16797H3.48047C4.19531 7.16797 4.75977 6.98047 5.17383 6.60547C5.5918 6.23047 5.80078 5.71875 5.80078 5.07031C5.80078 4.41797 5.5918 3.9043 5.17383 3.5293C4.75977 3.1543 4.19531 2.9668 3.48047 2.9668H1.27148ZM10.0891 10.6777C10.718 10.6777 11.2532 10.4824 11.6946 10.0918C12.136 9.69727 12.3567 9.2207 12.3567 8.66211V7.71875L10.2532 7.87695C9.64773 7.91992 9.1868 8.0625 8.87039 8.30469C8.55398 8.54688 8.39578 8.87891 8.39578 9.30078C8.39578 9.70312 8.55398 10.0332 8.87039 10.291C9.1907 10.5488 9.59695 10.6777 10.0891 10.6777ZM10.0305 11.082C9.41336 11.082 8.90945 10.918 8.51883 10.5898C8.13211 10.2578 7.93875 9.82812 7.93875 9.30078C7.93875 8.76172 8.1282 8.33984 8.50711 8.03516C8.88992 7.73047 9.45242 7.55078 10.1946 7.49609L12.3567 7.33789V6.77539C12.3567 6.22461 12.1966 5.79492 11.8763 5.48633C11.5598 5.17773 11.1184 5.02344 10.552 5.02344C10.0169 5.02344 9.57938 5.1543 9.23953 5.41602C8.89969 5.67773 8.69266 6.04688 8.61844 6.52344H8.17898C8.23367 5.94141 8.47781 5.47656 8.91141 5.12891C9.345 4.78125 9.89383 4.60742 10.5579 4.60742C11.2493 4.60742 11.7962 4.79883 12.1985 5.18164C12.6048 5.56445 12.8079 6.08594 12.8079 6.74609V11H12.3684V9.64062H12.3567C12.2005 10.0703 11.9075 10.418 11.4778 10.6836C11.0481 10.9492 10.5657 11.082 10.0305 11.082ZM16.9849 11.1113C16.317 11.1113 15.7701 10.9551 15.3443 10.6426C14.9224 10.3301 14.6627 9.91602 14.565 9.40039H15.022C15.1119 9.78711 15.3267 10.1035 15.6666 10.3496C16.0064 10.5918 16.4459 10.7129 16.9849 10.7129C17.5357 10.7129 17.9732 10.5879 18.2974 10.3379C18.6255 10.084 18.7896 9.73828 18.7896 9.30078C18.7896 8.85156 18.6255 8.51367 18.2974 8.28711C17.9693 8.06055 17.5103 7.94727 16.9205 7.94727H15.9068V7.54883H16.9205C17.44 7.54883 17.8463 7.43359 18.1392 7.20312C18.4322 6.97266 18.5787 6.66016 18.5787 6.26562C18.5787 5.88281 18.4361 5.57812 18.1509 5.35156C17.8697 5.12109 17.4849 5.00586 16.9966 5.00586C16.481 5.00586 16.0611 5.13281 15.7369 5.38672C15.4166 5.63672 15.2134 5.96484 15.1275 6.37109H14.6763C14.774 5.85156 15.0201 5.42773 15.4146 5.09961C15.813 4.77148 16.3384 4.60742 16.9908 4.60742C17.6236 4.60742 18.1197 4.75586 18.4791 5.05273C18.8423 5.34961 19.024 5.75 19.024 6.25391C19.024 6.62109 18.9048 6.9375 18.6666 7.20312C18.4283 7.46875 18.1236 7.63672 17.7525 7.70703V7.73633C18.1861 7.79492 18.5416 7.95703 18.8189 8.22266C19.1002 8.48438 19.2408 8.83398 19.2408 9.27148C19.2408 9.84961 19.0357 10.3008 18.6255 10.625C18.2154 10.9492 17.6685 11.1113 16.9849 11.1113ZM23.9803 4.60742C24.7733 4.60742 25.4159 4.9082 25.908 5.50977C26.4041 6.10742 26.6522 6.88672 26.6522 7.84766C26.6522 8.80859 26.4061 9.58789 25.9139 10.1855C25.4217 10.7832 24.7791 11.082 23.9862 11.082C23.4159 11.082 22.9178 10.918 22.492 10.5898C22.0702 10.2617 21.7889 9.84375 21.6483 9.33594H21.6307V13.0215H21.1737V4.68945H21.6014V6.37695H21.619C21.7635 5.86523 22.0506 5.44336 22.4803 5.11133C22.9139 4.77539 23.4139 4.60742 23.9803 4.60742ZM23.9276 10.6719C24.5995 10.6719 25.1444 10.4121 25.5623 9.89258C25.9803 9.36914 26.1893 8.6875 26.1893 7.84766C26.1893 7.00781 25.9803 6.32812 25.5623 5.80859C25.1444 5.28516 24.5995 5.02344 23.9276 5.02344C23.2518 5.02344 22.6991 5.28516 22.2694 5.80859C21.8436 6.33203 21.6307 7.01172 21.6307 7.84766C21.6307 8.67969 21.8436 9.35938 22.2694 9.88672C22.6991 10.4102 23.2518 10.6719 23.9276 10.6719ZM30.5304 10.6777C31.1593 10.6777 31.6945 10.4824 32.1359 10.0918C32.5773 9.69727 32.798 9.2207 32.798 8.66211V7.71875L30.6945 7.87695C30.089 7.91992 29.628 8.0625 29.3116 8.30469C28.9952 8.54688 28.837 8.87891 28.837 9.30078C28.837 9.70312 28.9952 10.0332 29.3116 10.291C29.632 10.5488 30.0382 10.6777 30.5304 10.6777ZM30.4718 11.082C29.8546 11.082 29.3507 10.918 28.9601 10.5898C28.5734 10.2578 28.38 9.82812 28.38 9.30078C28.38 8.76172 28.5695 8.33984 28.9484 8.03516C29.3312 7.73047 29.8937 7.55078 30.6359 7.49609L32.798 7.33789V6.77539C32.798 6.22461 32.6378 5.79492 32.3175 5.48633C32.0011 5.17773 31.5597 5.02344 30.9933 5.02344C30.4581 5.02344 30.0206 5.1543 29.6808 5.41602C29.3409 5.67773 29.1339 6.04688 29.0597 6.52344H28.6202C28.6749 5.94141 28.9191 5.47656 29.3527 5.12891C29.7863 4.78125 30.3351 4.60742 30.9991 4.60742C31.6905 4.60742 32.2374 4.79883 32.6398 5.18164C33.046 5.56445 33.2491 6.08594 33.2491 6.74609V11H32.8097V9.64062H32.798C32.6417 10.0703 32.3488 10.418 31.9191 10.6836C31.4894 10.9492 31.007 11.082 30.4718 11.082ZM37.9652 11.1172C37.0629 11.1172 36.3676 10.8047 35.8793 10.1797C35.3949 9.55469 35.1527 8.66211 35.1527 7.50195C35.1527 6.72461 35.1879 6.05469 35.2582 5.49219C35.3324 4.92578 35.4457 4.43555 35.598 4.02148C35.7504 3.60742 35.9535 3.27539 36.2074 3.02539C36.4652 2.77539 36.7719 2.5918 37.1273 2.47461C37.4828 2.35352 37.9047 2.28906 38.393 2.28125C38.7367 2.28125 39.0492 2.26758 39.3305 2.24023C39.7797 2.20117 40.1254 2.12891 40.3676 2.02344V2.42188C40.1645 2.53516 39.8305 2.61133 39.3656 2.65039C39.0687 2.68555 38.7465 2.70312 38.3988 2.70312C37.9105 2.70703 37.5004 2.77344 37.1684 2.90234C36.8402 3.02734 36.5648 3.23633 36.3422 3.5293C36.1195 3.82227 35.9477 4.19141 35.8266 4.63672C35.7094 5.08203 35.6215 5.64648 35.5629 6.33008H35.5863C35.7816 5.81836 36.0902 5.42188 36.5121 5.14062C36.934 4.85547 37.432 4.71289 38.0062 4.71289C38.85 4.71289 39.5238 5.00195 40.0277 5.58008C40.5316 6.1543 40.7836 6.91992 40.7836 7.87695C40.7836 8.86133 40.5277 9.64844 40.016 10.2383C39.5043 10.8242 38.8207 11.1172 37.9652 11.1172ZM37.9652 10.7012C38.684 10.7012 39.2562 10.4473 39.682 9.93945C40.1078 9.42773 40.3207 8.74023 40.3207 7.87695C40.3207 7.03711 40.1078 6.36914 39.682 5.87305C39.2602 5.37695 38.6879 5.12891 37.9652 5.12891C37.2426 5.12891 36.6684 5.37695 36.2426 5.87305C35.8207 6.36914 35.6098 7.03711 35.6098 7.87695C35.6098 8.74023 35.8207 9.42773 36.2426 9.93945C36.6684 10.4473 37.2426 10.7012 37.9652 10.7012ZM47.2341 10.2031C46.7184 10.7891 46.0387 11.082 45.195 11.082C44.3512 11.082 43.6716 10.7891 43.1559 10.2031C42.6442 9.61719 42.3884 8.83203 42.3884 7.84766C42.3884 6.85938 42.6442 6.07227 43.1559 5.48633C43.6716 4.90039 44.3512 4.60742 45.195 4.60742C46.0427 4.60742 46.7223 4.90039 47.2341 5.48633C47.7497 6.07227 48.0075 6.85938 48.0075 7.84766C48.0075 8.83203 47.7497 9.61719 47.2341 10.2031ZM43.4841 9.91016C43.9137 10.418 44.4841 10.6719 45.195 10.6719C45.9059 10.6719 46.4743 10.418 46.9001 9.91016C47.3298 9.39844 47.5446 8.71094 47.5446 7.84766C47.5446 6.98047 47.3317 6.29297 46.9059 5.78516C46.4802 5.27734 45.9098 5.02344 45.195 5.02344C44.4802 5.02344 43.9098 5.27734 43.4841 5.78516C43.0583 6.29297 42.8454 6.98047 42.8454 7.84766C42.8454 8.71484 43.0583 9.40234 43.4841 9.91016ZM54.1533 4.68945V5.08789H51.8623V11H51.4111V5.08789H49.1142V4.68945H54.1533ZM57.258 10.6777C57.887 10.6777 58.4221 10.4824 58.8635 10.0918C59.3049 9.69727 59.5256 9.2207 59.5256 8.66211V7.71875L57.4221 7.87695C56.8166 7.91992 56.3557 8.0625 56.0393 8.30469C55.7229 8.54688 55.5647 8.87891 55.5647 9.30078C55.5647 9.70312 55.7229 10.0332 56.0393 10.291C56.3596 10.5488 56.7659 10.6777 57.258 10.6777ZM57.1995 11.082C56.5823 11.082 56.0784 10.918 55.6877 10.5898C55.301 10.2578 55.1077 9.82812 55.1077 9.30078C55.1077 8.76172 55.2971 8.33984 55.676 8.03516C56.0588 7.73047 56.6213 7.55078 57.3635 7.49609L59.5256 7.33789V6.77539C59.5256 6.22461 59.3655 5.79492 59.0452 5.48633C58.7288 5.17773 58.2873 5.02344 57.7209 5.02344C57.1858 5.02344 56.7483 5.1543 56.4084 5.41602C56.0686 5.67773 55.8616 6.04688 55.7873 6.52344H55.3479C55.4026 5.94141 55.6467 5.47656 56.0803 5.12891C56.5139 4.78125 57.0627 4.60742 57.7268 4.60742C58.4182 4.60742 58.9651 4.79883 59.3674 5.18164C59.7737 5.56445 59.9768 6.08594 59.9768 6.74609V11H59.5373V9.64062H59.5256C59.3694 10.0703 59.0764 10.418 58.6467 10.6836C58.217 10.9492 57.7346 11.082 57.1995 11.082ZM66.5445 11V7.92969H62.5659V11H62.1148V4.68945H62.5659V7.53125H66.5445V4.68945H66.9956V11H66.5445ZM73.7625 10.2031C73.2469 10.7891 72.5672 11.082 71.7234 11.082C70.8797 11.082 70.2 10.7891 69.6844 10.2031C69.1727 9.61719 68.9168 8.83203 68.9168 7.84766C68.9168 6.85938 69.1727 6.07227 69.6844 5.48633C70.2 4.90039 70.8797 4.60742 71.7234 4.60742C72.5711 4.60742 73.2508 4.90039 73.7625 5.48633C74.2781 6.07227 74.5359 6.85938 74.5359 7.84766C74.5359 8.83203 74.2781 9.61719 73.7625 10.2031ZM70.0125 9.91016C70.4422 10.418 71.0125 10.6719 71.7234 10.6719C72.4344 10.6719 73.0027 10.418 73.4285 9.91016C73.8582 9.39844 74.073 8.71094 74.073 7.84766C74.073 6.98047 73.8602 6.29297 73.4344 5.78516C73.0086 5.27734 72.4383 5.02344 71.7234 5.02344C71.0086 5.02344 70.4383 5.27734 70.0125 5.78516C69.5867 6.29297 69.3738 6.98047 69.3738 7.84766C69.3738 8.71484 69.5867 9.40234 70.0125 9.91016ZM81.8763 5.09375H80.0072V7.53711H81.8119C82.2923 7.53711 82.6693 7.42383 82.9427 7.19727C83.2201 6.9707 83.3587 6.66016 83.3587 6.26562C83.3587 5.89453 83.2279 5.60742 82.9662 5.4043C82.7084 5.19727 82.3451 5.09375 81.8763 5.09375ZM81.8353 7.93555H80.0072V10.6016H81.9349C82.513 10.6016 82.9505 10.4863 83.2474 10.2559C83.5443 10.0254 83.6927 9.68359 83.6927 9.23047C83.6927 8.80859 83.5287 8.48828 83.2005 8.26953C82.8724 8.04688 82.4173 7.93555 81.8353 7.93555ZM79.556 11V4.68945H81.9056C82.4916 4.68945 82.9545 4.82812 83.2943 5.10547C83.638 5.38281 83.8099 5.75781 83.8099 6.23047C83.8099 6.60938 83.7005 6.93164 83.4818 7.19727C83.263 7.46289 82.974 7.62891 82.6146 7.69531V7.71875C83.0521 7.75781 83.4154 7.91211 83.7045 8.18164C83.9935 8.44727 84.138 8.79883 84.138 9.23633C84.138 9.80664 83.9466 10.2441 83.5638 10.5488C83.1849 10.8496 82.6459 11 81.9466 11H79.556Z" fill="white"/>
<path opacity="0.5" d="M167.937 26.4824C166.759 26.4824 165.757 26.0723 164.931 25.252C164.11 24.4316 163.7 23.4326 163.7 22.2549C163.7 21.4814 163.888 20.7725 164.263 20.1279C164.638 19.4775 165.15 18.9678 165.801 18.5986C166.451 18.2236 167.163 18.0361 167.937 18.0361C169.12 18.0361 170.122 18.4463 170.942 19.2666C171.769 20.0811 172.182 21.0771 172.182 22.2549C172.182 23.4326 171.769 24.4316 170.942 25.252C170.122 26.0723 169.12 26.4824 167.937 26.4824ZM167.937 25.999C168.991 25.999 169.879 25.6387 170.6 24.918C171.32 24.1914 171.681 23.3037 171.681 22.2549C171.681 21.2061 171.32 20.3213 170.6 19.6006C169.879 18.8799 168.991 18.5195 167.937 18.5195C166.888 18.5195 166.003 18.8799 165.282 19.6006C164.562 20.3213 164.201 21.2061 164.201 22.2549C164.201 23.3037 164.562 24.1914 165.282 24.918C166.003 25.6387 166.888 25.999 167.937 25.999ZM166.803 24.3555H166.337V19.8643H168.068C168.502 19.8643 168.856 19.9873 169.132 20.2334C169.407 20.4736 169.545 20.8047 169.545 21.2266C169.545 21.584 169.439 21.8799 169.229 22.1143C169.023 22.3486 168.771 22.4863 168.473 22.5273L169.773 24.3555H169.193L167.954 22.5977H166.803V24.3555ZM166.803 20.2861V22.1934H167.954C168.312 22.1934 168.587 22.1055 168.78 21.9297C168.974 21.7539 169.07 21.5195 169.07 21.2266C169.07 20.9453 168.971 20.7197 168.771 20.5498C168.578 20.374 168.306 20.2861 167.954 20.2861H166.803Z" fill="white"/>
<path fill-rule="evenodd" clip-rule="evenodd" d="M116.767 30.6652C117.541 31.555 118.568 32 119.856 32C120.883 32 121.726 31.7425 122.405 31.2506C123.106 30.7121 123.527 30.0328 123.691 29.1428H122.475C122.333 29.705 122.007 30.1266 121.539 30.4544C121.072 30.7587 120.485 30.9229 119.831 30.9229C118.919 30.9229 118.195 30.5714 117.657 29.8689C117.118 29.1663 116.837 28.2061 116.837 27.0117C116.837 25.8174 117.096 24.8572 117.633 24.1545C118.17 23.452 118.896 23.1006 119.809 23.1006C120.463 23.1006 121.047 23.2879 121.515 23.6394C122.007 24.0141 122.31 24.5058 122.475 25.1147H123.691C123.549 24.178 123.129 23.452 122.405 22.8664C121.701 22.2809 120.836 22 119.831 22C118.523 22 117.493 22.4682 116.745 23.3583C115.996 24.2483 115.621 25.4661 115.621 27.0117C115.621 28.5573 116.019 29.7752 116.767 30.6652ZM62.1556 31.7661H60.9629V22.2109H62.1556V31.7661ZM67.0403 31.7661H65.8945V22.2109H67.0636L72.2087 29.6583H72.3256V22.2109H73.4949V31.7661H72.3489L67.1574 24.3422H67.0403V31.7661ZM79.075 31.7661H80.2443V23.2883H83.3313V22.2109H75.9883V23.2883H79.075V31.7661ZM92.3638 30.7122V31.7896H86.4473V22.2344H92.3638V23.3115H87.6397V26.3795H92.13V27.4334H87.6397V30.7122H92.3638ZM97.2962 31.7896V27.9955V27.972H99.6348L101.669 31.7661H103.073L100.874 27.8081C101.459 27.6208 101.927 27.293 102.277 26.8011C102.628 26.3094 102.792 25.7239 102.792 25.0681C102.792 24.225 102.535 23.5223 101.973 23.0072C101.412 22.492 100.664 22.2344 99.7517 22.2344H96.1035V31.7896H97.2962ZM97.2962 26.9418V23.2883H99.5881C100.196 23.2883 100.687 23.4522 101.038 23.78C101.389 24.0846 101.552 24.5294 101.552 25.115C101.552 25.7005 101.389 26.1687 101.061 26.4733C100.711 26.7777 100.243 26.9418 99.6348 26.9418H97.2962ZM112.512 31.7661L111.554 29.0259H107.765L106.807 31.7661H105.566L109.075 22.2109H110.244L113.751 31.7661H112.512ZM109.612 23.7565L108.115 28.0189H111.202L109.707 23.7565H109.612ZM130.441 31.7661H129.27V23.2883H126.184V22.2109H133.527V23.2883H130.441V31.7661ZM136.643 31.7661H137.836V22.2109H136.643V31.7661ZM145.631 31.7661H144.462L140.953 22.2109H142.192L144.999 30.2205H145.116L147.921 22.2109H149.162L145.631 31.7661ZM158.194 31.7896V30.7122H153.471V27.4334H157.96V26.3795H153.471V23.3115H158.194V22.2344H152.277V31.7896H158.194Z" fill="white"/>
<path d="M13.9675 22H12.3242V32H13.9675V22Z" fill="white"/>
<path d="M1.8506 22L4.98917 28.2639L8.12026 22H9.98567L4.98917 32L0 22H1.8506Z" fill="white"/>
<path d="M17.3066 22L23.9242 27.9822V22H25.5823V32L18.9351 26.0252V32H17.3066V22Z" fill="white"/>
<path d="M52.9847 22H51.3418V32H52.9847V22Z" fill="white"/>
<path d="M39.7208 22H41.3715V26.1809H46.3385V22H48.0041V32H46.3385V27.8413H41.3715V32H39.7208V22Z" fill="white"/>
<path d="M33.1253 22C33.8204 22 34.465 22.1408 35.0641 22.3855C35.649 22.6449 36.1897 23.0007 36.6486 23.4603L35.464 24.6464C34.8201 24.0014 34.0353 23.6605 33.1253 23.6605C32.6663 23.6605 32.2295 23.7494 31.8296 23.9199C31.4149 24.1053 31.0747 24.335 30.7709 24.6464C30.46 24.9355 30.2309 25.2913 30.0459 25.6916C29.8752 26.1067 29.7862 26.5367 29.7862 27.0037C29.7862 27.4707 29.8752 27.9006 30.0459 28.301C30.2309 28.7013 30.46 29.0571 30.7709 29.361C31.0598 29.6501 31.4149 29.9022 31.8147 30.0726C32.2295 30.2432 32.6585 30.3321 33.1253 30.3321C34.0204 30.3321 34.8051 30.0059 35.464 29.361L36.6486 30.5322C36.1897 30.9919 35.649 31.3476 35.0641 31.6071C34.465 31.8666 33.8204 31.9926 33.1253 31.9926C32.4294 31.9926 31.7848 31.8666 31.1857 31.5923C30.571 31.3329 30.0459 30.977 29.587 30.5322C29.1423 30.0726 28.7873 29.5464 28.5283 28.9459C28.2543 28.3454 28.1284 27.7005 28.1284 27.0037C28.1284 26.3291 28.2543 25.6768 28.5283 25.0763C28.7873 24.4611 29.1423 23.9347 29.587 23.4751C30.0459 23.0156 30.571 22.6597 31.1857 22.4002C31.7848 22.1408 32.4294 22 33.1253 22Z" fill="white"/>
</g>
</svg>
